<svg width="489px" height="674px" xmlns="http://www.w3.org/2000/svg" xmlns:xlink="http://www.w3.org/1999/xlink">
<g style="">  <path d="M-181.000000,324.000000 L-181.000000,724.000000 L189.000000,724.000000 L559.000000,724.000000 L559.000000,720.200010 C559.000000,718.109980,559.539980,715.859980,560.200010,715.200010 C561.052000,714.348020,567.117000,714.000000,581.129030,714.000000 C603.140989,714.000000,604.000000,714.247010,604.000000,720.570980 L604.000000,724.000000 L611.500000,724.000000 L619.000000,724.000000 L619.000000,324.000000 L619.000000,-76.000000 L219.000000,-76.000000 L-181.000000,-76.000000 L-181.000000,324.000000 M261.500000,39.523003 C276.271000,43.570003,288.247009,52.252003,294.513000,63.457003 C297.457000,68.721003,302.476991,79.923002,308.334010,94.295013 C309.779990,97.844003,308.282010,98.963014,302.059990,98.985003 C299.618000,98.993003,295.118000,99.440003,292.059990,99.977013 C289.002010,100.514003,275.153980,101.413003,261.286980,101.974003 C229.469990,103.261003,210.174980,105.249014,187.930992,109.530004 C151.673992,116.507013,139.033993,120.606004,133.501991,127.180013 C131.248981,129.857003,131.001991,131.018013,131.018991,138.827003 C131.029991,143.597003,131.711981,152.000003,132.534981,157.500003 C133.357991,163.000003,134.283991,174.250003,134.593991,182.500003 C135.121001,196.552003,135.022991,197.709003,133.054991,200.812003 C131.282001,203.606013,130.449991,204.075003,127.726991,203.812003 L124.500001,203.500003 L124.789001,194.500003 C125.761991,164.197013,113.073002,134.843002,95.565000,126.890003 C89.407990,124.094013,84.718990,124.497013,76.864990,128.500003 C73.088000,130.425003,69.772990,132.000003,69.498990,132.000003 C68.335990,132.000003,69.144990,127.636003,70.971990,124.055012 C73.971990,118.175012,77.342980,116.000003,83.457000,116.000003 C93.748000,116.000003,106.554990,122.386003,116.862991,132.659003 C123.901991,139.673013,127.492991,140.867013,128.575991,136.553013 C129.390001,133.309013,127.482001,127.767003,124.720991,125.352013 C121.343991,122.400013,110.299981,114.989002,104.774992,111.968013 L99.853982,109.277023 L104.540992,108.748013 C107.118982,108.458023,110.414982,107.338013,111.863991,106.261013 C115.036982,103.903013,115.895992,99.558013,113.379981,98.593013 C111.256982,97.778013,103.178981,98.901013,102.428981,100.115023 C102.127991,100.602023,101.345991,100.986013,100.690991,100.970013 C100.035991,100.953013,100.287991,100.481013,101.250001,99.920023 C103.456991,98.634013,103.502991,95.213023,101.344991,92.829013 C99.245001,90.508013,91.892992,90.369013,88.510002,92.586013 C87.178992,93.458013,84.962002,96.096013,83.583002,98.448023 C81.100002,102.685003,76.167002,105.839013,74.060002,104.537013 C72.882012,103.809013,72.641002,95.106013,73.653002,89.875013 C75.477002,80.460013,108.188002,56.930014,125.504011,52.578012 C131.779001,51.001012,184.365000,43.195012,211.000013,39.886012 C219.525004,38.827012,226.950024,37.749012,227.500013,37.491012 C229.794994,36.411012,255.820023,37.966012,261.500013,39.523012 M243.606995,80.867996 C239.949005,81.666996,238.010984,84.414996,239.832005,86.221996 C241.609015,87.987006,279.501984,87.871986,282.827003,86.092986 C285.715003,84.546996,285.276013,81.806996,281.995003,80.893996 C278.888013,80.028996,247.544995,80.009006,243.607003,80.867996 M380.078033,95.753021 C380.768033,96.859021,383.356053,98.746011,385.828033,99.947021 C391.724033,102.811011,403.941044,112.053021,406.595034,115.656011 C411.343054,122.101021,413.566044,129.000001,410.894043,129.000001 C410.286043,129.000001,408.426023,127.854001,406.761044,126.452011 C403.184014,123.442001,401.008024,123.600001,399.317044,126.992001 C396.276024,133.091001,392.527034,133.372001,384.744013,128.085001 C369.335013,117.618001,365.775023,104.708991,373.553033,87.500002 L376.265043,81.500002 L377.543023,87.620992 C378.246023,90.986992,379.387013,94.646992,380.078023,95.753003 M155.852005,89.943993 C147.535005,90.642993,144.999995,91.964993,144.999995,95.602993 C144.999995,98.288002,148.355005,99.629992,152.480995,98.593992 C153.846005,98.251992,163.139996,97.505983,173.135996,96.937992 C183.131006,96.369992,192.139996,95.459992,193.154995,94.916993 C195.551995,93.633993,195.510005,91.342993,193.066005,90.034993 C190.988995,88.923993,168.654004,88.868993,155.852004,89.943993 M322.500000,102.865997 C335.610990,108.837008,342.222990,129.986998,336.053010,146.219997 C334.045990,151.500988,325.857000,162.149987,324.689000,160.999997 C324.409000,160.724987,323.211000,152.174997,322.027010,141.999997 C320.075990,125.235988,316.940000,106.613996,315.388000,102.568997 C314.569000,100.435997,317.425990,100.554997,322.500000,102.865997 M306.911987,110.135986 C310.114987,113.573986,312.832977,127.528996,315.456997,153.999985 C317.241967,172.010984,317.371977,179.121975,316.003997,184.045994 C314.169987,190.646994,313.216977,191.231984,302.900997,192.082984 C297.729977,192.508994,288.549987,193.556984,282.499998,194.410984 C276.449978,195.265994,264.074978,196.886984,254.999998,198.014984 C245.924988,199.142994,232.199978,200.932984,224.499998,201.992984 C205.943998,204.547994,163.346979,208.173984,156.301985,207.797994 C147.733995,207.341984,147.362985,206.494984,145.455995,182.999994 C144.585995,172.274984,143.226995,158.809003,142.436995,153.075994 C139.739985,133.510993,140.541995,130.280994,148.750995,127.621984 C156.226005,125.201984,192.941985,117.162984,206.147006,115.054983 C220.871986,112.704993,252.386996,110.192983,286.500003,108.649983 C304.148994,107.850983,304.829993,107.900993,306.911992,110.135993 M284.000031,119.098007 C256.711031,121.770007,189.045029,130.208007,172.920029,132.951007 C153.898029,136.186007,153.000029,136.843007,153.000029,147.521017 C153.000029,157.919007,155.913019,189.969019,157.051019,192.096018 C158.319029,194.464018,161.818019,194.739028,172.101019,193.278008 C185.685019,191.347008,223.927019,186.374018,255.000021,182.496008 C291.035021,178.000018,301.891012,176.216008,304.896021,174.294009 L307.293021,172.762009 L306.661031,152.631008 C305.917011,128.956999,305.021021,123.383999,301.451011,120.250000 C298.676021,117.814010,297.745021,117.752010,284.000020,119.098010 M417.361023,140.750000 C420.002013,145.893010,422.382023,156.018010,421.222013,157.177990 C420.633023,157.766990,415.808013,159.272990,410.500033,160.524990 C402.950013,162.304990,399.114013,162.681990,392.879033,162.253990 C383.877022,161.636990,383.195043,161.115000,380.399023,152.694980 C378.200013,146.075990,379.312013,145.048980,389.511023,144.277990 C396.226023,143.769990,397.751043,143.292990,400.409033,140.872990 C403.093023,138.429980,404.320043,138.054980,409.724033,138.028980 C415.519013,138.001990,416.046023,138.189990,417.361023,140.749990 M91.904007,144.910995 C102.868007,156.832995,108.288998,175.024006,104.894017,188.505997 C104.060017,191.817997,102.358007,194.261997,97.968007,198.448987 C92.629017,203.541987,91.767017,203.999997,87.531007,203.999997 C83.432007,203.999997,82.369007,203.489987,78.059007,199.458997 C67.276007,189.371987,56.438006,159.261987,61.294007,152.882997 C61.971007,151.994007,65.220007,148.960997,68.513007,146.141997 C74.459007,141.052997,74.547007,141.017987,81.404007,141.008997 C88.156007,140.999997,88.385997,141.085997,91.904007,144.910987 M409.375977,177.749985 C409.655977,178.712985,410.192967,181.668995,410.566987,184.320985 C410.941987,186.971985,412.223967,190.346985,413.416967,191.820985 C414.609987,193.293995,416.295997,195.633985,417.164987,197.018985 C418.032997,198.403995,421.163977,200.634985,424.121986,201.974995 C438.349986,208.423985,449.999977,216.582985,449.999977,220.098984 C449.999977,220.618984,448.148997,223.052974,445.886967,225.506984 C441.004977,230.802994,441.251987,232.321974,447.421967,234.966993 C451.905977,236.888993,454.999967,240.885973,454.999967,244.755993 C454.999967,245.776993,453.874967,248.135963,452.499967,249.999983 C448.332977,255.647993,449.259977,257.128983,457.499967,257.981973 C464.513977,258.708993,464.523987,260.799963,457.549987,269.002973 C454.510987,272.575973,451.278987,277.299973,450.365967,279.499983 L448.705967,283.499983 L445.352967,280.316973 C440.850987,276.043993,440.728977,271.210982,444.999967,266.346972 C448.316987,262.568992,449.039977,257.612992,446.419977,256.607992 C445.550957,256.273982,442.448967,256.282002,439.526967,256.626002 C434.801957,257.180992,434.143967,257.029992,433.581957,255.256982 C433.233967,254.161002,433.410967,252.049982,433.974967,250.566982 C435.609977,246.264982,435.200977,243.346002,431.999957,236.499992 C430.349967,232.971002,428.999957,229.770992,428.999957,229.387992 C428.999957,229.005992,430.799977,227.030982,432.999957,224.999992 C437.800947,220.567982,438.178977,217.234992,434.437977,212.329992 C431.744957,208.798982,423.465957,203.999992,420.067946,203.999992 C416.092966,203.999992,415.583966,207.470982,418.054946,217.728992 C419.939956,225.551992,420.096967,227.321993,418.968946,228.018983 C417.283947,229.060993,414.393967,227.604983,413.008956,225.016983 C412.438946,223.951983,411.074966,218.599993,409.976976,213.122983 C408.878956,207.646983,406.177966,197.936983,403.973957,191.546982 C400.831957,182.433972,400.194967,179.504992,401.018967,177.963993 C402.415967,175.353993,408.629957,175.194983,409.375957,177.749993 M297.968994,207.749985 C291.216004,215.570985,286.161984,219.331985,275.500004,224.472994 C262.277984,230.847974,257.678993,232.387984,243.984015,235.021994 C228.380014,238.023004,214.000004,238.633994,204.937006,236.680994 C200.846996,235.799004,194.704006,234.592984,191.286006,234.001004 C182.374006,232.458004,156.000007,222.625984,156.000007,220.847984 C156.000007,220.381994,158.586997,219.993994,161.750007,219.986994 C179.347997,219.947994,255.604003,211.602994,284.500007,206.552984 C302.612006,203.387994,301.798007,203.315984,297.968997,207.749994 M47.553993,232.087006 C48.533993,233.673006,46.873993,234.947996,40.328993,237.634006 C32.525993,240.837006,24.338983,243.261015,25.607994,241.992005 C26.170994,241.429015,30.182993,238.726015,34.524993,235.984005 C42.259994,231.100006,46.212993,229.917006,47.553994,232.087005 M413.500000,234.421997 C417.337010,235.756987,417.500000,235.989987,417.500000,240.148987 C417.500000,244.192997,417.243010,244.605007,413.675990,246.285007 C410.618010,247.725008,409.348990,249.227998,407.338980,253.793007 C402.084010,265.729007,397.585990,268.677007,392.454980,263.544987 C389.471980,260.562997,389.389000,259.046997,392.020990,255.700017 C394.558980,252.472997,396.999990,245.662997,396.999990,241.808997 C396.999990,234.049017,403.747981,231.027987,413.499990,234.422007 M425.979950,255.447998 C426.565950,256.986998,426.749940,259.814998,426.389950,261.731998 C425.887940,264.411018,426.378930,266.562018,428.508940,271.019988 C431.276950,276.811007,431.325960,279.999998,428.644960,279.999998 C426.379950,279.999998,424.390960,274.386988,422.016940,261.290988 C420.798950,254.575988,419.176940,248.562019,418.412970,247.927008 C417.647960,247.293008,417.257970,246.390998,417.546940,245.924018 C418.264960,244.761998,424.665960,251.991008,425.979950,255.448008 M170.001984,252.502045 C175.898983,258.587035,182.378983,260.430055,197.999983,260.468045 C212.916993,260.503045,218.290983,259.263025,227.338984,253.696045 C232.066984,250.787045,232.377984,250.736055,240.838984,251.470035 C245.602993,251.883055,252.954984,252.514045,257.176964,252.871035 C261.398984,253.228065,265.128994,253.796055,265.464984,254.132055 C265.801964,254.468055,264.714984,256.939065,263.049974,259.622045 C258.327954,267.231055,255.619984,279.570045,256.275954,290.492046 C256.984964,302.305066,260.531964,317.480056,263.749954,322.462045 C265.781964,325.608045,266.487964,328.385045,267.181964,335.962045 C268.256974,347.688056,269.009964,349.559065,273.387954,351.389045 C275.288954,352.183055,277.551954,353.912055,278.415973,355.232065 C280.081963,357.774055,283.191973,376.258064,285.009963,394.421064 C286.412983,408.439075,286.387953,408.469065,271.390973,411.000044 C247.100963,415.102064,172.411977,416.091044,148.499967,412.629074 C124.567956,409.164044,125.999967,409.870074,125.999967,401.536053 C125.999967,397.260053,125.515957,394.659074,124.537957,393.681043 C123.733957,392.876053,120.020957,391.693063,116.287957,391.052043 C112.554957,390.410043,103.199957,388.292063,95.499966,386.345044 C84.223966,383.495064,80.640957,382.144053,77.085967,379.403054 C74.657967,377.531044,72.056957,376.000034,71.304977,376.000034 C69.293957,376.000034,68.652977,378.566044,69.823967,381.926064 C71.287967,386.125034,69.449967,387.468054,64.178977,386.048044 C59.649967,384.829054,58.999977,383.707044,58.999977,377.109044 C58.999977,368.556034,59.261967,368.458044,77.090976,370.350044 C87.446967,371.450054,95.738966,372.972054,102.377977,374.993054 C113.613967,378.414044,114.869967,378.545054,117.558977,376.583054 C119.125967,375.440044,119.595967,373.566054,119.999967,366.853074 C120.572967,357.321064,119.902967,357.895064,132.772957,355.925064 C143.386957,354.300064,145.751957,351.124074,138.816967,347.808064 L135.277967,346.115074 L134.746957,308.808064 C134.277967,275.889054,133.992957,270.794052,132.317957,265.500084 C130.198967,258.801074,130.323967,256.325064,132.813957,255.610074 C134.206967,255.211084,149.920967,251.444084,157.499958,249.694084 C163.533958,248.300074,166.595948,248.988064,170.001958,252.502064 M345.898926,266.500061 C345.559936,267.600071,344.318936,268.644071,343.140926,268.820071 C340.338926,269.238071,340.356926,267.180061,343.236936,258.355071 L345.472926,251.500061 L345.993926,258.000061 C346.280916,261.575071,346.237916,265.400051,345.898926,266.500061 M122.249939,265.929047 C124.504939,270.382047,124.999939,272.676057,124.999939,278.679047 C124.999939,282.706057,124.627949,286.000057,124.173939,286.000057 C123.719949,286.000057,122.257939,284.820037,120.923939,283.377037 C119.590949,281.935047,116.136939,278.996027,113.249939,276.846027 C108.282939,273.148027,107.999939,272.696037,107.999939,268.468037 C107.999939,262.553027,110.631939,259.763017,115.806949,260.193047 C119.169939,260.473047,119.745949,260.985037,122.249939,265.929037 M293.209930,264.308075 C296.116940,266.678075,298.647921,269.411075,298.834930,270.383085 C299.334930,272.980065,296.379941,275.706085,292.218930,276.487055 C287.361940,277.398065,283.460930,279.477075,277.860930,284.138055 C272.233921,288.823085,270.530941,288.961085,269.097931,284.851065 C266.066921,276.155055,270.323941,263.147055,276.999941,260.706074 C277.824921,260.405044,280.620941,260.122064,283.212921,260.079064 C287.338931,260.010064,288.582921,260.536064,293.209931,264.308064 M376.315918,263.146027 C377.516908,263.777037,380.543918,265.991027,383.042908,268.066037 C387.514928,271.780027,395.941928,277.349027,411.293919,286.735016 C415.580939,289.356016,422.895909,293.911047,427.550910,296.857027 C436.968939,302.818027,439.777930,303.078037,442.473910,298.237027 L443.997930,295.500027 L443.748940,300.000027 C443.503910,304.429016,443.404920,304.547027,437.499920,307.500027 C432.622940,309.939026,431.017930,311.395017,428.920939,315.283017 C427.501929,317.914027,424.763929,321.739006,422.836929,323.783017 C420.908919,325.827026,418.317949,328.850037,417.077929,330.500027 C415.837939,332.150017,411.596939,336.875027,407.652940,341.000027 C395.112929,354.115017,396.001940,351.838007,395.984939,370.885036 C395.975939,380.023036,395.584949,388.107015,395.114939,388.848017 C394.644939,389.590017,393.413919,390.035027,392.379919,389.837027 C390.684910,389.513017,390.450929,388.186027,389.999919,376.339006 C389.394939,360.447006,389.415939,360.479016,376.433939,355.449026 C371.315929,353.466026,363.916939,349.631036,359.990920,346.926016 C350.232919,340.204036,338.651930,329.633017,336.378920,325.373005 L334.499920,321.852005 L337.499920,319.461015 C339.149910,318.146015,341.849930,315.981005,343.499920,314.649005 C347.207930,311.656025,354.825940,298.856005,358.469920,289.500015 C359.968910,285.650005,362.465920,280.475024,364.018930,278.000015 C365.571940,275.525005,367.977910,270.913005,369.365910,267.750015 C372.003910,261.741015,372.725930,261.262005,376.315920,263.146014 M71.057938,280.441040 C65.650938,285.951050,57.299937,290.482060,48.906939,292.460050 C36.650939,295.349030,33.232939,293.956050,43.999938,290.460050 C49.460938,288.687040,54.999938,284.122040,54.999938,281.394039 C54.999938,280.627039,55.899938,279.100029,56.999938,278.000029 C58.674938,276.325039,60.332938,276.000029,67.207939,276.000029 L75.415939,276.000029 L71.057939,280.441039 M170.499939,279.560028 C162.829939,282.220028,159.722949,284.986018,157.923939,290.752018 C157.261939,292.872048,156.543949,303.899018,156.268939,316.142029 C155.809939,336.597019,155.889939,337.890018,157.726949,339.727018 C159.562949,341.563018,161.846949,341.706018,198.828938,342.307038 C220.365939,342.656038,238.632939,342.694028,239.423959,342.391018 C240.213939,342.088008,241.341959,340.459008,241.929939,338.771018 C243.307959,334.819019,243.346959,294.102008,241.979959,286.894039 C240.257939,277.813018,241.709939,278.203028,207.499948,277.633019 C177.699949,277.136009,177.452947,277.149009,170.499948,279.560019 M374.666931,277.666992 C374.299931,278.032992,373.999941,279.524992,373.999941,280.981992 C373.999941,286.546992,390.348942,299.388973,408.926939,308.417993 C419.141939,313.382993,424.281920,314.209983,425.916930,311.154993 C427.501920,308.193993,424.684940,305.363973,415.674930,300.861993 C403.853950,294.954983,391.389930,287.334983,384.513919,281.809993 C378.856939,277.264003,376.190919,276.141993,374.666939,277.666983 M110.592941,285.250000 C118.080951,292.080990,121.999941,298.258000,121.999941,303.226990 C121.999941,305.415010,121.451941,307.273010,120.723941,307.552000 C120.021941,307.821990,116.534941,306.828000,112.973941,305.343990 C109.412951,303.859980,101.358951,301.476990,95.074941,300.048000 C88.790941,298.618010,83.478951,296.937010,83.269951,296.311000 C82.720951,294.662990,101.039951,280.020989,103.668951,280.006980 C104.312951,280.002980,107.427941,282.363000,110.592951,285.249990 M306.820984,281.462006 C314.306004,283.037016,324.328983,287.083005,327.215975,289.695005 C328.196995,290.583005,328.999975,292.347986,328.999975,293.615995 C328.999975,295.502985,328.226995,296.107996,324.749975,296.942015 C316.944985,298.813015,307.568975,302.231015,300.499975,305.781006 C296.649995,307.714996,291.367984,310.369015,288.762974,311.680996 C284.444985,313.853996,283.781984,313.938996,281.260995,312.635006 C279.739995,311.847986,277.637975,310.257016,276.590005,309.100006 C273.544994,305.735016,275.759985,300.347016,283.306005,292.765016 C290.635995,285.399996,297.021005,280.121006,298.685004,280.050016 C299.336004,280.023006,302.997995,280.658016,306.820994,281.462006 M318.330963,311.250000 C319.668973,313.037990,321.517973,315.991000,322.439973,317.812990 C324.065953,321.027010,324.041963,321.251010,321.630953,325.312990 C320.263983,327.616000,315.717963,332.875000,311.529974,337.000000 L303.913973,344.500000 L301.920963,342.000000 C299.108983,338.471010,295.445953,331.239010,293.967963,326.295010 C292.891973,322.697990,292.938973,321.742000,294.292973,319.675990 C296.262973,316.669000,310.647954,308.000000,313.667973,308.000000 C315.017983,308.000000,316.857973,309.282009,318.330963,311.250000 M104.755997,317.960999 C114.147007,322.403988,116.001997,324.671999,115.991986,331.704988 C115.977996,342.705998,114.197996,349.950989,109.944986,356.320009 C107.774986,359.568999,105.999996,362.578009,105.999996,363.006989 C105.999996,364.749999,102.478997,364.923009,96.658997,363.463989 C84.061007,360.307009,83.430997,359.577999,85.119997,350.115999 C86.686997,341.338019,92.102997,320.795019,93.651997,317.749998 C95.421997,314.270998,97.020007,314.300988,104.755997,317.960998 M334.736969,348.967010 C340.350979,354.983000,346.403959,360.123020,353.131960,364.587010 C359.872960,369.061010,362.827970,371.572031,362.149970,372.250000 C360.577980,373.822021,345.037971,372.634000,341.251990,370.651000 C336.253970,368.035001,322.999980,351.592010,322.999980,348.009000 C322.999980,345.135010,324.823990,340.000000,325.845990,340.000000 C326.133980,340.000000,330.135970,344.035000,334.736980,348.967010 M245.654999,364.829010 C243.305999,367.424010,243.597989,369.539000,246.635009,371.927000 C253.230989,377.116000,260.106989,371.881010,255.442988,365.223020 C253.480978,362.421020,248.032988,362.201020,245.654999,364.829010 M131.999985,376.242004 C130.189985,377.195004,129.499985,378.378994,129.499985,380.529994 C129.499985,383.283015,129.820985,383.542994,133.883985,384.084985 C136.345975,384.413995,140.950984,384.049005,144.383985,383.253995 C148.118984,382.389005,152.475985,382.084014,155.576975,382.468994 C159.726985,382.985014,161.089975,382.747014,163.044975,381.165004 C165.064975,379.528985,165.232975,378.985985,164.132975,377.660004 C163.119975,376.440004,160.755975,376.091004,153.497985,376.091004 C148.365985,376.091004,141.990985,375.828004,139.332975,375.507994 C136.210985,375.131014,133.614985,375.390994,131.999985,376.242004 M326.558990,381.417969 C328.371980,382.742979,328.521001,384.444979,328.827000,407.269958 C329.186010,434.145969,329.009980,434.999968,323.129000,434.999968 C318.110990,434.999968,318.000000,434.413968,318.000000,407.881958 C318.000000,394.286958,318.272980,382.451967,318.606990,381.581968 C319.364990,379.605958,323.949000,379.510958,326.558990,381.417968 M352.653992,387.248962 C353.324982,388.333952,354.725002,396.375973,355.308992,402.499972 C355.600982,405.553962,350.673982,405.799962,348.596982,402.834962 C346.677002,400.093962,346.395992,389.003973,348.199982,387.199953 C349.751982,385.647953,351.677982,385.669953,352.653992,387.248963 M138.509995,400.891968 C134.161984,401.553958,133.089994,403.372958,135.278995,406.367978 C136.442005,407.956968,138.241995,408.211968,149.058004,408.313958 C156.698994,408.385948,162.284994,407.992978,163.534004,407.295948 C165.027004,406.462968,167.778004,406.442948,173.887004,407.222948 C182.843014,408.365958,184.309004,407.814958,183.756004,403.508958 C183.377994,400.570938,175.805004,399.712968,163.224005,401.182938 C155.265995,402.111958,152.205005,402.113938,149.653005,401.191938 C146.189005,399.938948,144.978004,399.905958,138.509995,400.891948 M98.087006,406.936981 C103.909016,407.924991,109.984006,409.363981,111.587006,410.133971 C114.486006,411.526981,114.499996,411.576991,114.488006,420.516972 C114.481006,425.457982,114.085006,433.661991,113.609006,438.747992 L112.742006,447.995981 L116.871006,451.770001 C120.665016,455.237991,121.000006,455.952981,121.000006,460.587991 C121.000006,465.206002,119.627006,474.973982,118.377006,479.249981 C117.710016,481.530991,114.490016,481.478981,111.154016,479.133981 C101.359016,472.249981,74.902017,463.935011,57.169015,462.167981 C52.037015,461.656991,47.350026,460.749981,46.753026,460.153001 C45.602026,459.002001,47.433016,442.973981,49.055016,439.999980 C49.692006,438.833990,51.933026,438.499980,59.133016,438.499980 C68.014015,438.499980,68.443026,438.397990,69.626016,435.999980 C70.304016,434.624980,71.275006,427.550000,71.784006,420.278000 C72.373016,411.851000,73.200006,406.464000,74.064016,405.422990 C75.608016,403.563000,79.760026,403.825000,98.087016,406.937000 M270.964996,425.933960 C271.533996,426.997960,271.999996,429.260960,271.999996,430.962950 C271.999996,435.259950,277.420986,445.570950,281.778986,449.563959 C285.350976,452.836939,285.379996,452.922969,283.549986,454.944939 C281.199006,457.541959,279.027006,457.537959,274.604006,454.928949 C272.648986,453.774959,269.855016,452.999959,268.296996,453.178949 C265.968996,453.445949,265.447996,454.032949,265.191986,456.674949 C264.929996,459.383959,265.440006,460.226949,268.674016,462.424949 C270.759006,463.840969,273.023996,464.999959,273.708986,464.999959 C276.062986,464.999959,277.833006,469.513939,278.540005,477.313959 C279.174005,484.319939,279.650995,485.663969,283.157985,490.313930 C287.072995,495.504970,290.632995,504.908960,289.650995,507.466951 C289.316005,508.338961,286.683985,509.041961,282.314996,509.426971 C262.365985,511.184971,253.418996,512.499971,242.999997,515.207981 C227.407987,519.259981,227.696987,519.268951,226.937987,514.727941 C226.591007,512.653971,225.260007,509.840981,223.980007,508.477941 L221.650997,505.999971 L233.602997,505.999971 C243.053007,505.999971,246.044007,505.656951,247.891996,504.362951 C250.441006,502.577981,250.441986,502.304971,247.973996,487.683931 C246.346986,478.049961,247.031006,450.866941,248.958006,448.547941 C250.438996,446.765961,255.585996,446.773951,266.161986,448.574951 C269.212006,449.093961,270.009006,448.850951,270.934996,447.121951 C272.506986,444.183961,270.551996,441.466951,265.545986,439.633971 C258.244996,436.959961,255.718986,436.943971,244.518005,439.496951 C231.148005,442.543951,229.132995,442.588961,234.994995,439.708961 C238.623995,437.925971,239.794004,436.665961,241.066005,433.169961 C243.033995,427.762981,244.153985,427.057961,250.999994,426.918951 C254.024984,426.856971,258.975004,426.237951,261.999994,425.541971 C269.697994,423.769971,269.808984,423.774971,270.964994,425.933971 M177.173004,430.674988 C190.880004,432.950988,190.539004,432.541988,188.179004,443.897978 C186.257004,453.140987,184.885014,455.489987,182.023014,454.433988 C178.434014,453.108978,160.541004,452.810968,151.666004,453.927978 C146.369004,454.594998,141.630003,454.888978,141.134004,454.582978 C140.301014,454.067998,147.379004,432.240998,149.393004,429.112978 C150.462004,427.453978,161.529004,428.075988,177.173005,430.674988 M328.502991,450.026001 C329.250981,456.472011,328.264981,459.000001,325.000001,459.000001 C322.422001,459.000001,321.082001,456.877991,320.367001,451.662991 C319.617001,446.187011,320.945981,444.000001,325.023981,444.000001 C327.678981,444.000001,327.834981,444.271001,328.502981,450.026001 M177.964996,465.934021 C178.533996,466.998021,178.999996,471.187011,178.999996,475.243011 C178.999996,485.672030,179.566996,486.215031,191.281996,486.986020 C203.197996,487.770020,204.441996,488.613030,203.553996,495.301020 C202.541986,502.936029,197.084986,510.272030,190.499996,512.852049 C187.309996,514.101009,169.013987,516.098019,167.749996,515.335019 C167.336986,515.085999,166.999996,513.799009,166.999996,512.476009 C166.999996,509.147029,164.176996,507.921019,155.158997,507.332999 C150.945997,507.058039,145.699997,506.160029,143.499996,505.337029 C139.046996,503.670039,134.999996,500.342029,134.999996,498.345029 C134.999996,496.262999,139.898996,495.596009,145.201996,496.955019 C155.415996,499.572999,158.318996,495.520999,159.494996,477.000028 C159.897006,470.675018,160.427006,465.163018,160.671996,464.750028 C160.916996,464.337038,164.675996,464.000028,169.024006,464.000028 C175.817006,464.000028,177.074996,464.272028,177.964996,465.934018 M64.322998,476.523010 C80.548008,479.851010,108.865009,488.724000,111.712997,491.372010 C112.557997,492.158020,112.964007,497.461000,113.050997,508.843020 C113.169997,524.525030,113.082997,525.281980,110.912997,527.593020 C109.668998,528.916990,107.942008,529.999030,107.076007,529.997990 C106.209007,529.996040,101.414998,528.233040,96.421008,526.079040 C91.427998,523.924010,84.002998,521.197020,79.921008,520.018000 C75.839998,518.838980,69.075998,516.794000,64.890997,515.473020 C60.705997,514.151000,52.495987,512.212030,46.646998,511.161980 C33.414998,508.788990,32.585998,508.184990,33.461988,501.543020 C35.067988,489.364000,42.269988,472.999990,46.024988,472.999990 C46.641988,472.999990,54.875988,474.585010,64.322988,476.523000 M327.891998,487.369995 C328.518008,488.124025,329.135988,490.486995,329.264988,492.619995 C329.489998,496.338015,329.362008,496.513005,326.184998,496.817995 C324.360988,496.992985,322.223998,496.601015,321.434998,495.945985 C319.669988,494.481015,319.527988,487.356995,321.249998,486.661985 C323.671998,485.684995,326.768009,486.015015,327.891999,487.369995 M291.162994,524.981018 C292.419004,527.970028,293.929994,529.478028,297.324004,531.127018 C302.376984,533.582038,303.343994,535.174988,305.053984,543.869018 C306.065004,549.006038,305.996974,550.978028,304.626004,556.436038 C302.509004,564.864018,302.597984,571.518008,304.893974,576.574039 C305.911984,578.815008,307.514004,583.713018,308.452994,587.458009 C309.871974,593.117009,309.935994,594.481019,308.829974,595.527039 C308.098984,596.218999,301.874984,598.669008,294.999984,600.972049 C279.969984,606.006049,271.646983,610.355049,267.692973,615.239988 C264.194983,619.562988,264.517983,623.590029,268.442973,624.575008 C272.340983,625.553038,274.443983,624.304008,279.492963,618.009028 C284.617963,611.619019,285.443983,611.184019,301.390973,606.475028 C311.718973,603.424978,323.734963,600.999988,328.516984,600.999988 C333.043994,600.999988,334.999984,598.772998,334.999984,593.619988 C334.999984,591.288998,335.648974,588.509028,336.441974,587.441028 C337.862994,585.528978,337.916984,585.532028,340.052994,587.637988 C341.401994,588.968978,342.414994,591.501998,342.735974,594.345998 C343.350964,599.806018,345.041974,601.551018,351.014964,602.887989 C353.819984,603.515979,356.061964,604.746999,356.999984,606.173999 C359.754984,610.366019,361.668994,611.699019,368.903974,614.462998 C378.412974,618.097028,379.152964,619.342998,378.788983,631.106978 C378.515974,639.926008,378.360974,640.517988,375.999983,641.728008 C374.044964,642.730018,362.542984,642.952988,323.249983,642.754008 L272.998973,642.499978 L269.188973,638.330968 C264.695963,633.415018,264.247963,633.314978,242.999973,632.485998 C225.681984,631.811008,224.999973,631.522988,224.999973,624.873998 C224.999973,619.472018,223.434973,615.999978,220.999973,615.999978 C217.865973,615.999978,216.736973,620.312968,217.273963,630.231968 C217.610973,636.450958,217.373973,639.472998,216.449993,640.731968 C215.236983,642.386998,212.018964,642.483008,165.916973,642.239968 C133.617974,642.069008,116.248974,641.621008,115.424984,640.937968 C114.510984,640.178998,114.427974,639.027018,115.120984,636.697978 C115.644974,634.939008,115.781984,629.829998,115.425974,625.343978 C114.629964,615.308028,114.996974,614.999987,127.755974,614.999987 C133.352974,614.999987,138.416974,614.395987,141.432974,613.368027 C145.877964,611.853017,146.474964,611.856007,149.716975,613.402027 C153.447975,615.181017,156.999975,614.741017,156.999975,612.499987 C156.999975,610.668017,153.627965,609.702987,150.005975,610.499007 C148.116965,610.913007,146.056965,610.587997,144.277974,609.592997 C142.749974,608.738997,138.912965,606.931007,135.749975,605.574987 C132.586965,604.218967,129.999975,602.634987,129.999975,602.054967 C129.999975,600.412997,198.430974,600.603977,199.779973,602.249977 C200.342973,602.937967,201.313973,605.405007,201.935963,607.733007 C202.558963,610.061007,203.922963,612.423987,204.967973,612.983007 C208.600953,614.926977,219.347963,614.183997,225.128973,611.588967 C228.772953,609.952007,237.732973,607.998027,252.999973,605.509987 C276.381963,601.699017,296.870971,597.613017,300.749973,595.985997 C303.604953,594.788977,303.845983,590.402987,301.103973,589.532997 C300.060973,589.202007,293.500973,589.894997,286.525973,591.074017 C275.705963,592.902017,273.199953,593.035997,269.457983,591.988017 C264.321963,590.549967,257.104953,591.239967,247.860964,594.049967 C240.047974,596.426007,237.610964,596.473977,233.968964,594.321997 C231.523954,592.877967,230.552974,592.816997,226.991974,593.884007 C223.887974,594.813997,222.510954,594.838967,221.481964,593.985017 C219.781954,592.574007,218.297974,585.186007,217.436954,573.845006 C216.802954,565.496987,216.862984,565.137976,219.139954,563.710976 C220.437954,562.897986,225.047974,561.985026,229.384954,561.683026 C240.473974,560.910996,269.711984,556.989976,274.499975,555.632976 C277.797975,554.699016,278.499975,554.061016,278.499975,551.999976 L278.499975,549.499976 L265.499975,549.657996 C254.425965,549.791966,234.487985,551.751987,225.096956,553.631017 C223.348966,553.980017,221.651976,553.530977,220.189976,552.332006 C218.319976,550.799966,217.850956,549.134007,217.321966,542.155006 C216.600956,532.650976,216.974986,532.040016,223.527955,532.014997 C226.012975,532.006027,230.232975,530.717996,234.541966,528.652017 C240.192966,525.944007,243.245976,525.176007,250.513986,524.634987 C255.455976,524.267007,263.324956,523.350017,267.999976,522.597997 C272.674967,521.845987,279.424966,521.183017,282.999976,521.126017 L289.499976,521.019997 L291.162966,524.980997 M202.211975,524.711914 C204.253985,525.522884,206.151975,526.931884,206.428985,527.842894 C206.705965,528.754944,207.437985,534.632934,208.053985,540.906924 C209.039975,550.941894,208.968965,552.968934,207.462985,557.757933 C205.776985,563.117923,205.790985,563.371883,208.374975,574.032893 C209.818975,579.989923,210.999975,586.356933,210.999975,588.181882 L210.999975,591.499932 L167.943975,591.393912 C137.669985,591.318902,124.554987,590.954882,123.768984,590.168872 C122.957984,589.357902,122.924974,586.015923,123.650974,577.996872 C125.216984,560.702923,127.086974,559.041913,148.999984,555.491932 C171.000974,551.926932,180.880985,550.010912,183.560974,548.789902 C189.132984,546.251882,186.430983,541.393902,179.999983,542.388902 C178.074984,542.686872,170.874983,543.842882,163.999983,544.957872 C157.124983,546.073902,145.495974,547.769882,138.157973,548.726912 C125.088973,550.431872,124.785983,550.427902,123.407973,548.542892 C121.337983,545.712872,121.719983,540.052902,124.285983,535.522873 C127.253983,530.281903,134.938983,526.363872,144.999984,524.961902 C154.871974,523.586902,187.144973,522.108872,193.499984,522.740892 C196.249984,523.013902,200.170974,523.900922,202.211974,524.711902 M49.222969,529.518921 C52.674969,530.959901,59.774969,533.633911,64.999969,535.460941 C77.639979,539.881901,77.761970,539.937931,78.391979,541.578921 C78.691969,542.361941,77.606979,546.327941,75.979979,550.391911 C74.093979,555.099921,72.463969,561.900941,71.484979,569.139901 C70.639979,575.387951,69.698979,581.740911,69.392979,583.257941 C68.664979,586.872931,65.955979,588.313911,62.418969,586.968941 L59.706969,585.937931 L60.307970,577.718940 C60.638970,573.198920,61.882970,565.899911,63.072980,561.499950 C66.534980,548.699900,66.545980,548.403940,63.607980,546.478950 C56.306980,541.694950,48.169980,552.008920,42.485980,573.250921 C39.879980,582.988901,38.742980,584.999941,35.845980,584.999941 C32.774980,584.999941,32.536980,582.220950,34.955980,574.622930 C38.489980,563.520940,42.986980,555.310920,49.321980,548.393930 C56.252990,540.824900,56.729980,537.657910,50.999980,537.250920 C48.350990,537.062930,45.797980,538.051950,40.499980,541.317940 C34.681980,544.904920,32.908980,546.669930,29.999980,551.763920 C19.115980,570.824890,16.255970,574.532900,13.191980,573.560921 C10.191980,572.608951,10.442980,569.950931,13.863980,566.439951 C15.438980,564.822951,18.559980,560.879951,20.798980,557.676952 C24.769970,551.996962,33.647980,543.321912,41.306979,537.636912 C49.606979,531.476943,42.430979,527.456923,31.809989,532.315932 C28.889979,533.651932,24.081989,536.714923,21.125979,539.122943 C14.356979,544.636922,12.058979,545.959922,10.374979,545.313923 C8.534979,544.607933,9.911979,542.232932,16.249979,535.180922 C24.354978,526.161942,25.167979,525.774912,34.722978,526.378922 C40.397979,526.737932,44.891989,527.710952,49.222978,529.518932 " style="fill: rgba(0, 0, 0, 1.000000); stroke-width: 0.000000px; stroke: rgba(0, 0, 0, 1.000000); " fill="#000000" stroke="#000000" stroke-width="0.000000" />
  <rect x="-14.000000" y="25.000000" width="13.000000" height="624.000000" style="fill: rgba(0, 0, 0, 1.000000); stroke-width: 0.000000px; stroke: rgba(255, 255, 255, 1.000000); " fill="#000000" stroke="#ffffff" stroke-width="0.000000"  />
  <rect x="468.000000" y="16.000000" width="8.000000" height="630.000000" style="fill: rgba(0, 0, 0, 1.000000); stroke-width: 0.000000px; stroke: rgba(255, 255, 255, 1.000000); " fill="#000000" stroke="#ffffff" stroke-width="0.000000"  />
</g></svg>